<svg xmlns="http://www.w3.org/2000/svg" version="1.1" xmlns:xlink="http://www.w3.org/1999/xlink" xmlns:svgjs="http://svgjs.dev/svgjs" width="1432" height="560" preserveAspectRatio="none" viewBox="0 0 1432 560"><g mask="url(&quot;#SvgjsMask1041&quot;)" fill="none"><path d="M1036.419,411.391C1070.158,410.491,1102.687,398.596,1121.67,370.689C1143.468,338.643,1156.188,297.071,1137.142,263.317C1117.864,229.153,1075.621,218.186,1036.419,219.603C999.918,220.923,966.357,238.851,947.566,270.171C928.195,302.457,922.861,343.587,942.912,375.455C961.971,405.747,1000.643,412.345,1036.419,411.391" fill="rgba(28, 83, 142, 0.4)" class="triangle-float1"></path><path d="M799.5394756077759-50.329848635791166L656.6028458657114-22.545782359425058 684.3869121420776 120.39084738263941 827.3235418841421 92.6067811062733z" fill="rgba(28, 83, 142, 0.4)" class="triangle-float3"></path><path d="M1012.016,288.68C1055.552,289.318,1096.036,266.887,1118.658,229.684C1142.222,190.931,1146.549,142.792,1124.986,102.891C1102.364,61.031,1059.598,32.174,1012.016,32.352C964.712,32.529,922.379,61.791,900.498,103.73C880.118,142.793,887.902,188.904,910.653,226.636C932.577,262.997,969.562,288.058,1012.016,288.68" fill="rgba(28, 83, 142, 0.4)" class="triangle-float3"></path><path d="M1149.21 451.07 a148.67 148.67 0 1 0 297.34 0 a148.67 148.67 0 1 0 -297.34 0z" fill="rgba(28, 83, 142, 0.4)" class="triangle-float3"></path><path d="M930.63 421.68 a98.51 98.51 0 1 0 197.02 0 a98.51 98.51 0 1 0 -197.02 0z" fill="rgba(28, 83, 142, 0.4)" class="triangle-float3"></path><path d="M423.28 378.73 a144.24 144.24 0 1 0 288.48 0 a144.24 144.24 0 1 0 -288.48 0z" fill="rgba(28, 83, 142, 0.4)" class="triangle-float3"></path><path d="M471.844,102.833C502.693,102.139,525.213,76.214,539.118,48.667C551.53,24.077,550.621,-3.892,538.101,-28.427C524.144,-55.778,502.55,-83.262,471.844,-83.171C441.235,-83.08,420.786,-54.982,406.267,-28.035C392.681,-2.82,386.283,26.21,399.114,51.817C413.333,80.193,440.113,103.547,471.844,102.833" fill="rgba(28, 83, 142, 0.4)" class="triangle-float3"></path><path d="M964.6787919463916 279.831816178311L823.2064433007587 277.2275376204228 881.2753973183487 386.4393562562836z" fill="rgba(28, 83, 142, 0.4)" class="triangle-float3"></path><path d="M28.58 71.96 a170.94 170.94 0 1 0 341.88 0 a170.94 170.94 0 1 0 -341.88 0z" fill="rgba(28, 83, 142, 0.4)" class="triangle-float3"></path><path d="M704.61 501.11 a138.59 138.59 0 1 0 277.18 0 a138.59 138.59 0 1 0 -277.18 0z" fill="rgba(28, 83, 142, 0.4)" class="triangle-float1"></path><path d="M207.418,730.765C264.404,730.842,303.23,679.872,331.284,630.27C358.77,581.672,376.41,525.506,351.871,475.356C324.441,419.297,269.826,376.611,207.418,377.125C145.72,377.633,94.072,422.245,67.027,477.702C43.037,526.895,57.578,582.077,84.129,629.937C111.733,679.694,150.517,730.688,207.418,730.765" fill="rgba(28, 83, 142, 0.4)" class="triangle-float1"></path><path d="M94.93253815230075 268.9065557899094L100.07435248133744 121.66425832988952-47.167944978682456 116.52244400085283-52.30975930771915 263.7647414608727z" fill="rgba(28, 83, 142, 0.4)" class="triangle-float3"></path><path d="M601.709,263.803C634.236,262.191,660.203,239.141,675.629,210.459C690.17,183.422,691.142,151.579,676.61,124.537C661.225,95.908,634.206,73.444,601.709,72.907C568.39,72.356,539.602,93.452,522.391,121.987C504.519,151.618,497.021,188.271,513.912,218.471C531.144,249.28,566.451,265.55,601.709,263.803" fill="rgba(28, 83, 142, 0.4)" class="triangle-float1"></path><path d="M1022.0359496170752 381.229275538853L1076.8440429847142 484.30830725054443 1179.9230746964056 429.5002138829054 1125.1149813287666 326.421182171214z" fill="rgba(28, 83, 142, 0.4)" class="triangle-float1"></path><path d="M1160.59 146.11 a168.9 168.9 0 1 0 337.8 0 a168.9 168.9 0 1 0 -337.8 0z" fill="rgba(28, 83, 142, 0.4)" class="triangle-float2"></path><path d="M550.0073098915153-13.317292108267978L477.497664873276 43.33345132758682 606.6580533273701 59.19235290997136z" fill="rgba(28, 83, 142, 0.4)" class="triangle-float3"></path></g><defs><mask id="SvgjsMask1041"><rect width="1432" height="560" fill="#ffffff"></rect></mask><style>
                @keyframes float1 {
                    0%{transform: translate(0, 0)}
                    50%{transform: translate(-10px, 0)}
                    100%{transform: translate(0, 0)}
                }

                .triangle-float1 {
                    animation: float1 5s infinite;
                }

                @keyframes float2 {
                    0%{transform: translate(0, 0)}
                    50%{transform: translate(-5px, -5px)}
                    100%{transform: translate(0, 0)}
                }

                .triangle-float2 {
                    animation: float2 4s infinite;
                }

                @keyframes float3 {
                    0%{transform: translate(0, 0)}
                    50%{transform: translate(0, -10px)}
                    100%{transform: translate(0, 0)}
                }

                .triangle-float3 {
                    animation: float3 6s infinite;
                }
            </style></defs></svg>