<svg xmlns="http://www.w3.org/2000/svg" version="1.1" xmlns:xlink="http://www.w3.org/1999/xlink" xmlns:svgjs="http://svgjs.dev/svgjs" width="1432" height="560" preserveAspectRatio="none" viewBox="0 0 1432 560">
    <g mask="url(&quot;#SvgjsMask1145&quot;)" fill="none">
        <rect width="1432" height="560" x="0" y="0" fill="rgba(255, 255, 255, 1)"></rect>
        <path d="M-129.24 484.75 a179.12 179.12 0 1 0 358.24 0 a179.12 179.12 0 1 0 -358.24 0z" fill="rgba(28, 83, 142, 0.4)" class="triangle-float3"></path>
        <path d="M292.2970092554899 80.07712371885073L179.13309072232903 3.747096868971198 102.80306387244948 116.9110154021321 215.9669824056104 193.24104225201162z" fill="rgba(28, 83, 142, 0.4)" class="triangle-float2"></path>
        <path d="M1117.311,528.215C1168.431,527.627,1197.464,475.566,1222.101,430.771C1245.493,388.239,1265.279,340.695,1244.597,296.782C1220.997,246.674,1172.693,209.003,1117.311,208.279C1060.851,207.541,1008.762,242.568,984.131,293.378C962.014,339.003,983.25,389.126,1008.262,433.23C1033.75,478.173,1065.647,528.809,1117.311,528.215" fill="rgba(28, 83, 142, 0.4)" class="triangle-float2"></path>
        <path d="M1129.5 210.34 a119.8 119.8 0 1 0 239.6 0 a119.8 119.8 0 1 0 -239.6 0z" fill="rgba(28, 83, 142, 0.4)" class="triangle-float1"></path>
        <path d="M811.7435854209631 162.76027795011817L724.3336087882682 297.0794182193507 864.0817154890144 306.85155779607544z" fill="rgba(28, 83, 142, 0.4)" class="triangle-float1"></path>
        <path d="M1051.895,450.701C1091.307,448.335,1117.627,414.58,1136.965,380.157C1155.78,346.664,1170.473,306.939,1151.385,273.601C1132.213,240.116,1090.467,232.585,1051.895,231.58C1010.868,230.512,965.497,233.845,943.005,268.174C918.835,305.065,924.485,353.679,947.081,391.555C969.11,428.48,1008.975,453.277,1051.895,450.701" fill="rgba(28, 83, 142, 0.4)" class="triangle-float3"></path>
        <path d="M1355.8911871902312 394.04125189249964L1247.8200967150385 343.64687477875555 1197.4257196012943 451.7179652539483 1305.4968100764872 502.1123423676924z" fill="rgba(28, 83, 142, 0.4)" class="triangle-float3"></path>
        <path d="M-61.83531950168747 129.09579936816752L-39.99009839790007 231.86948432125965 62.783586555192066 210.02426321747225 40.93836545140466 107.25057826438011z" fill="rgba(28, 83, 142, 0.4)" class="triangle-float2"></path>
        <path d="M500.71 349.64 a118.63 118.63 0 1 0 237.26 0 a118.63 118.63 0 1 0 -237.26 0z" fill="rgba(28, 83, 142, 0.4)" class="triangle-float3"></path>
        <path d="M1256.7281120249036 238.1248667090631L1223.1390375805722 341.50140815533575 1394.9983869721468 340.1967490986965z" fill="rgba(28, 83, 142, 0.4)" class="triangle-float3"></path>
        <path d="M371.7 541.2 a158.09 158.09 0 1 0 316.18 0 a158.09 158.09 0 1 0 -316.18 0z" fill="rgba(28, 83, 142, 0.4)" class="triangle-float2"></path>
        <path d="M1181.72 226.61 a150.88 150.88 0 1 0 301.76 0 a150.88 150.88 0 1 0 -301.76 0z" fill="rgba(28, 83, 142, 0.4)" class="triangle-float2"></path>
        <path d="M182.572,202.834C226.005,202.903,261.861,174.803,285.738,138.522C312.919,97.219,338.586,45.978,314.048,3.051C289.409,-40.052,232.104,-45.348,182.572,-41.956C139.702,-39.021,100.24,-18.192,78.975,19.147C57.926,56.106,59.08,101.147,79.974,138.194C101.256,175.929,139.249,202.765,182.572,202.834" fill="rgba(28, 83, 142, 0.4)" class="triangle-float1"></path>
        <path d="M-96 258.09 a146.28 146.28 0 1 0 292.56 0 a146.28 146.28 0 1 0 -292.56 0z" fill="rgba(28, 83, 142, 0.4)" class="triangle-float3"></path>
        <path d="M345.1062695742002 182.78859202628652L484.9733212537283 202.4456242166899 504.63035344413163 62.57857253716186 364.7633017646036 42.92154034675846z" fill="rgba(28, 83, 142, 0.4)" class="triangle-float3"></path>
        <path d="M1443.389,322.102C1487.052,322.14,1526.232,298.065,1549.191,260.926C1573.513,221.582,1582.339,172.982,1560.915,131.988C1537.977,88.097,1492.843,55.851,1443.389,58.48C1397.198,60.935,1367.069,102.415,1345.68,143.429C1326.257,180.672,1317.751,223.89,1337.905,260.743C1358.823,298.995,1399.791,322.064,1443.389,322.102" fill="rgba(28, 83, 142, 0.4)" class="triangle-float2"></path>
        <path d="M853.5860784474944 488.8547828412566L761.2163635386632 516.9988081259676 821.9362052269555 575.6352776524141z" fill="rgba(28, 83, 142, 0.4)" class="triangle-float1"></path>
        <path d="M896.82 79.06 a112.89 112.89 0 1 0 225.78 0 a112.89 112.89 0 1 0 -225.78 0z" fill="rgba(28, 83, 142, 0.4)" class="triangle-float3"></path>
        <path d="M920.5,191.085C939.609,191.644,962.04,190.786,971.215,174.015C980.215,157.565,967.249,139.393,957.565,123.336C948.358,108.069,938.315,90.597,920.5,89.923C901.912,89.22,887.377,104.134,878.241,120.337C869.297,136.201,865.343,155.553,874.682,171.188C883.833,186.509,902.662,190.563,920.5,191.085" fill="rgba(28, 83, 142, 0.4)" class="triangle-float2"></path>
        <path d="M395.64 286.72 a184.41 184.41 0 1 0 368.82 0 a184.41 184.41 0 1 0 -368.82 0z" fill="rgba(28, 83, 142, 0.4)" class="triangle-float3"></path>
    </g>
    <defs>
        <mask id="SvgjsMask1145">
            <rect width="1432" height="560" fill="#ffffff"></rect>
        </mask>
        <style>
            @keyframes float1 {
                    0%{transform: translate(0, 0)}
                    50%{transform: translate(-10px, 0)}
                    100%{transform: translate(0, 0)}
                }

                .triangle-float1 {
                    animation: float1 5s infinite;
                }

                @keyframes float2 {
                    0%{transform: translate(0, 0)}
                    50%{transform: translate(-5px, -5px)}
                    100%{transform: translate(0, 0)}
                }

                .triangle-float2 {
                    animation: float2 4s infinite;
                }

                @keyframes float3 {
                    0%{transform: translate(0, 0)}
                    50%{transform: translate(0, -10px)}
                    100%{transform: translate(0, 0)}
                }

                .triangle-float3 {
                    animation: float3 6s infinite;
                }
        </style>
    </defs>
</svg>