<svg transform="scale(1)" id="_0008_navigation" xmlns="http://www.w3.org/2000/svg" viewBox="0 0 500 500" class="show_show__wrapper__graphic__5Waiy "><title>React</title><defs><style>.cls-1,.cls-2,.cls-3,.cls-4{fill:#fff;}.cls-5{fill:#f4a28c;}.cls-6{fill:#a5a5a5;}.cls-2{opacity:.67;}.cls-7{fill:#e6e6e6;}.cls-8{opacity:.58;}.cls-8,.cls-9,.cls-10{fill:#68e1fd;}.cls-3{opacity:.2;}.cls-11{opacity:.02;}.cls-11,.cls-12,.cls-13{fill:#000001;}.cls-14{fill:#24285b;}.cls-12{opacity:.08;}.cls-9{opacity:.73;}.cls-4{opacity:.31;}.cls-13{opacity:.1;}.cls-15{fill:#ffd200;}</style></defs><g id="map"><rect class="cls-7" x="91.9" y="76.89" width="325.79" height="251.3"></rect><rect class="cls-13" x="116.2" y="95.63" width="277.19" height="213.81"></rect><rect class="cls-7" x="324.78" y="205.94" width="13.28" height="103.51"></rect><polygon class="cls-13" points="311.11 76.89 398.93 76.89 398.93 78.9 355.02 153.7 332.77 153.7 311.11 76.89"></polygon><rect class="cls-7" x="220.69" y="152.4" width="13.28" height="90.15" transform="translate(-70.32 243.06) rotate(-49.69)"></rect><rect class="cls-7" x="358.54" y="187.47" width="13.28" height="80.16" transform="translate(-23.4 412.34) rotate(-57.36)"></rect><polygon class="cls-1" points="246.69 310.13 233.41 310.13 233.41 251.86 274.77 199.3 324.78 199.3 324.78 137.17 338.06 137.17 338.06 212.58 281.22 212.58 246.69 256.46 246.69 310.13"></polygon><polygon class="cls-7" points="199.6 174.95 110.5 174.95 110.5 161.67 186.32 161.67 186.32 89.11 199.6 89.11 199.6 174.95"></polygon><polygon class="cls-7" points="277.52 140.33 192.96 140.33 192.96 127.05 264.24 127.05 264.24 89.11 277.52 89.11 277.52 140.33"></polygon><polygon class="cls-13" points="198.31 222.38 218.23 232.6 205.43 257.69 218.23 263.07 185.51 328.19 125.72 328.19 131.91 271.93 141.27 256 164.64 222.38 188.83 222.38 198.31 222.38"></polygon></g><ellipse class="cls-11" id="sd" cx="250" cy="441.39" rx="213.49" ry="27.13"></ellipse><g id="plant"><path class="cls-8" d="m399.54,410.75s-16.83-4.52-20.55-20.15c0,0,26.02-5.37,26.87,21.5l-6.33-1.36Z"></path><path class="cls-9" d="m401.6,409.07s-11.82-18.52-1.56-35.92c0,0,19.85,12.49,11.15,35.92h-9.59Z"></path><path class="cls-10" d="m404.62,409.07s6.12-19.63,24.86-23.42c0,0,3.57,12.72-12.05,23.42h-12.82Z"></path><polygon class="cls-14" points="392.43 408.68 395.94 431.98 417.4 431.98 420.46 408.68 392.43 408.68"></polygon></g><g id="person"><polygon class="cls-10" points="134.15 261.18 163.67 224.39 170.04 229.98 144.88 272.03 134.15 261.18"></polygon><polygon class="cls-5" points="85.27 200.59 90.72 216.93 77.79 225.14 73.13 196.82 85.27 200.59"></polygon><path class="cls-5" d="m68.7,181.03c2.78-6.79,11.81-8.18,16.83-2.82,5.5,5.87,12.14,15.22,4.63,20.3-11.49,7.78-22.03-6.76-22.03-6.76,0,0-1.54-5.57.57-10.72Z"></path><path class="cls-5" d="m77.1,191.05s-2.94-2.46-4.28,1.03c-1.33,3.5,3.87,5.19,5.42,3.42s-1.14-4.46-1.14-4.46Z"></path><path class="cls-10" d="m62.7,233.16c3.9-8.77,11.53-15.34,20.73-18.1,17.57-5.28,49.92.5,59.78,16.93,13.5,22.5-6.26,93.97-6.26,93.97l-59.04,4.58s-32.48-58.58-15.21-97.39Z"></path><polygon class="cls-14" points="136.94 325.96 129.17 427.47 116.9 427.47 105.94 348.6 78.79 330.55 136.94 325.96"></polygon><polygon class="cls-14" points="78.79 330.55 61.85 427.47 75.01 427.47 103.44 346.95 78.79 330.55"></polygon><path class="cls-12" d="m88.53,213.52s-27.62,88.95,52.13,94.85l-3.72,17.6-59.04,4.58s-20.8-32.67-19.92-78.55c0,0,.5-22.69,16.47-32.72,0,0,6.1-4.49,14.08-5.77Z"></path><path class="cls-10" d="m64.94,427.26l-7.93,5.84c-1.35,1-.65,3.15,1.03,3.15h13.29c.96,0,1.74-.78,1.74-1.74v-7.25h-8.13Z"></path><path class="cls-10" d="m127.64,427.26l7.46,5.84c1.32,1.03.59,3.15-1.09,3.15h-9.46c-2.79,0-5.05-2.26-5.05-5.05v-3.94h8.13Z"></path><path class="cls-10" d="m112.61,214.59s-10.14,14.38,0,31.49c6.44,10.87,25.17,32.03,37.98,46.02,6.23,6.81,17.3,5.52,21.8-2.54l27.51-48.5-9.34-5.98-25.21,36.97s-17.25-56.73-52.74-57.44Z"></path><path class="cls-3" d="m112.61,214.59s-10.14,14.38,0,31.49c6.44,10.87,25.17,32.03,37.98,46.02,6.23,6.81,17.3,5.52,21.8-2.54l27.51-48.5-9.34-5.98-25.21,36.97s-17.25-56.73-52.74-57.44Z"></path><path class="cls-5" d="m196.64,238.97s15.62-5.74,9.25-14.57c-6.37-8.84-15.33,10.67-15.33,10.67l6.08,3.9Z"></path><rect class="cls-15" x="191.51" y="209.15" width="15.43" height="22.5" transform="translate(107.49 -62.18) rotate(24.13)"></rect><path class="cls-14" d="m55.97,234.08c8.98-4.34,23.51-9.75,37.67-8.06,5.86.7,10.83,4.64,12.86,10.18,3.76,10.26,9.63,29.01,9.3,45.46-.13,6.51-4.14,12.33-10.25,14.58-7.51,2.77-19.52,6.29-35.18,7.9-7.58.78-14.64-3.96-16.79-11.28-2.82-9.59-6.04-24.63-6.49-44.24-.14-6.16,3.33-11.86,8.88-14.54Z"></path><circle class="cls-1" cx="71.76" cy="252.75" r="4.53"></circle><path class="cls-14" d="m93.64,226.01s9.56-14.82,20.88-12.85c11.32,1.97,12.16,4.83,12.16,4.83,0,0-16.96.16-23.24,14.75l-9.8-6.73Z"></path><path class="cls-14" d="m115.35,271.86s5.67,6.76,25.32,8.11l7.26,9.22s-18.47,4.53-35.58-6.54,3-10.79,3-10.79Z"></path><path class="cls-14" d="m73.99,202.02l-8.75-9.06c-1.84-1.9-2.79-4.47-2.66-7.11.21-4.61,1.2-11.95,5.01-17.47,5.98-8.65,13.95-11.92,15.93-4.44,1.98,7.48,2.39-1.4,7.21,2.57,4.82,3.97,3.83,6.3,0,8.41-3.83,2.11-11.77,5.15-12.47,11.46s5.27,11.39-4.26,15.63Z"></path><path class="cls-5" d="m165.15,225.7s1.95-13.49,15.03-12.18c13.08,1.3,8.3,4.64,3.02,4.89h-.04c-2.2.43-3.9,2.08-4.6,4.21-.77,2.36-2.9,5.43-8.53,7.37l-4.88-4.28Z"></path></g><g id="pin"><ellipse class="cls-14" cx="331.42" cy="153.7" rx="33.13" ry="10.75"></ellipse><path class="cls-15" d="m380.08,62.51c0-28.69-24.84-51.58-54.18-48.35-22.21,2.45-40.16,20.24-42.78,42.44-1.36,11.49,1.3,22.31,6.75,31.23h0l41.56,68.09,41.35-67.76h0c4.63-7.45,7.31-16.23,7.31-25.64Zm-48.66,25.82c-13.14,0-23.79-10.65-23.79-23.79s10.65-23.79,23.79-23.79,23.79,10.65,23.79,23.79-10.65,23.79-23.79,23.79Z"></path></g><g id="walk"><rect class="cls-13" x="331.99" y="273.84" width="106.56" height="54.07"></rect><rect class="cls-6" x="345.95" y="273.84" width="130.9" height="80.01"></rect><path class="cls-1" d="m375.27,321.13s-2.05,11.18,6.93,9.67c8.98-1.52,4.7-6.27,3.42-12.4l-10.35,2.73Z"></path><path class="cls-1" d="m374.21,315.97l10.37-2.38s.42-8.32-.07-16.63c-.49-8.32-8.68-15.2-14.14-9.58-5.46,5.62-3.31,16.97,3.84,28.59Z"></path><path class="cls-1" d="m393.85,331.4s-5.9,8.3,1.96,10.47c7.86,2.17,6.19-3.31,7.48-8.77l-9.44-1.71Z"></path><path class="cls-1" d="m394.95,326.81l9.33,2s3.49-6.59,6.25-13.53c2.75-6.94-1.28-15.63-7.85-13.14s-9.12,12.52-7.73,24.67Z"></path><rect class="cls-2" x="429.32" y="303.05" width="31.58" height="8.78"></rect><rect class="cls-4" x="429.32" y="318.68" width="31.58" height="8.78"></rect></g></svg>