<svg transform="scale(1)" id="_0031_map" xmlns="http://www.w3.org/2000/svg" viewBox="0 0 500 500" class="show_show__wrapper__graphic__5Waiy "><title>React</title><defs><style>.cls-1{opacity:.45;}.cls-1,.cls-2,.cls-3{fill:#fff;}.cls-4{fill:#f4a28c;}.cls-5{fill:#a5a5a5;}.cls-6{opacity:.03;}.cls-6,.cls-7{fill:#000001;}.cls-8{opacity:.67;}.cls-8,.cls-9{fill:#c9c9c9;}.cls-9{opacity:.31;}.cls-10{fill:#e6e6e6;}.cls-2{opacity:.2;}.cls-3{opacity:.46;}.cls-11{fill:#24285b;}.cls-7{opacity:.08;}.cls-12{fill:#ffd200;}.cls-13{fill:#68e1fd;}</style></defs><g id="globe"><circle class="cls-10" cx="296.3" cy="189.55" r="130.25"></circle><path class="cls-5" d="m200.04,104.3s1.14,18.79,14.04,13.15c12.89-5.64,30.27-11.74,28.39,8.92-1.88,20.66,8.45,23.48,23.01,18.32s7.51-6.58,8.45-25.36c.94-18.79-23.48-19.73-19.73-32.88,3.76-13.15,33.1,2.53,22.89-25.74,0,0-51.39,4.25-77.06,43.59Z"></path><path class="cls-5" d="m308.46,153.25c-2.73.04-5.45.55-7.91,1.73-5.15,2.45-11.35,8.38-7.82,22.51,5.64,22.62,15.03,5.81,27.24,8.58,12.21,2.77,39.92,5.58,26.3,30.48-13.62,24.89,1.88,30.06,15.03,23.95,13.15-6.11,4.23-30.53,17.85-19.73,13.62,10.8-2.03,44.85,31.16,31.82,0,0,38.2-57.83,0-126.07,0,0-17.31-33.13-30.93-21.39-13.62,11.74,5.13,12.4,7,25.89,1.88,13.48-6.06,29.93-16.93,14.79-10.87-15.14-7.2-13.8-24.58-15.68-13.88-1.5-23.56.17-23.79,11.96-.12,6.13-5.09,11.05-11.21,11.14l-1.39.02Z"></path><path class="cls-5" d="m305.03,79.88s-13.52-3.76-13.33,12.68c.18,16.44,9.11,15.49,18.97,11.27,9.86-4.22,1.41,9.4,20.19,5.64,18.79-3.76,20.19-8.16,15.97-14.65-4.23-6.49-11.27-31.38-41.8-14.94Z"></path><path class="cls-5" d="m166.05,189.55s15.89-25.98,33.24-8.42c17.35,17.56-16.79,14.74.75,31.65,17.54,16.91,29.73-22.37,39.6-7.43,9.87,14.94,29.21,25.09,6.54,38.24s-9.11,31.42,1.34,27.54,29,22.57,0,38.94c0,0-85.1-31.05-81.47-120.53Z"></path><path class="cls-5" d="m302.22,219.36s-17.84,0-17.9,16.91c-.06,16.91,33.33.92,25.56,19.25-7.77,18.32,10.49,23.26,20.61,15.63,10.13-7.63-7.35-30.6-5.65-46.83,1.69-16.22-20.64-12.47-22.62-4.95Z"></path><path class="cls-5" d="m296.3,319.8s-11.51-12.15,13.59-14.96c25.1-2.82,25.66-15.97,33.83-21.6s25.49,14.26,25.49,14.26c0,0-32.14,28.82-72.91,22.31Z"></path><path class="cls-7" d="m260.99,167.86l18.26-2.98-11.61,45.5-12.03,2.56c-5.4,1.15-9.93,4.74-12.29,9.73-6.21,13.12-20.48,39.81-41,57.78,0,0-31.31-27.44-35.64-71.64l20.19-37.64,15.45-.95,58.68-2.34Z"></path><path class="cls-7" d="m343.97,278.45h-19.98v41.04s12.25-2.69,19.98-6.53v-34.51Z"></path></g><ellipse class="cls-6" id="sd" cx="235.5" cy="447.05" rx="190.27" ry="25.44"></ellipse><g id="person"><path class="cls-13" d="m228,370.39s6.03,4.97,12.03,2.06c6-2.91,10.82,1.78,6.55,6.29-4.27,4.51-21.45,5.78-21.45,5.78l-4.53-8.47,7.4-5.67Z"></path><path class="cls-13" d="m191.38,384.52s1.82,7.6,8.37,8.89c6.54,1.29,7.56,7.94,1.43,8.97-6.13,1.03-20.6-8.31-20.6-8.31l1.48-9.49,9.32-.07Z"></path><polygon class="cls-13" points="145.82 215.69 179.57 173.63 186.86 180.02 158.09 228.1 145.82 215.69"></polygon><polygon class="cls-4" points="103.34 160.36 109.57 179.04 94.78 188.43 89.46 156.05 103.34 160.36"></polygon><path class="cls-4" d="m84.38,137.99c3.18-7.76,13.51-9.35,19.25-3.23,6.29,6.72,13.88,17.4,5.3,23.22-13.14,8.9-25.19-7.73-25.19-7.73,0,0-1.76-6.37.65-12.26Z"></path><path class="cls-4" d="m93.99,149.45s-3.37-2.82-4.89,1.18,4.42,5.93,6.2,3.91-1.31-5.09-1.31-5.09Z"></path><path class="cls-13" d="m77.52,197.6c4.46-10.03,13.19-17.54,23.7-20.7,20.09-6.04,57.08.57,68.35,19.36,15.44,25.73-7.16,107.45-7.16,107.45l-67.51,5.24s-37.14-66.98-17.39-111.36Z"></path><path class="cls-7" d="m107.06,175.14s-31.58,101.71,59.61,108.46l-4.25,20.12-67.51,5.24s-23.79-37.35-22.78-89.82c0,0,.58-25.94,18.84-37.41,0,0,6.97-5.14,16.1-6.59Z"></path><path class="cls-13" d="m134.59,176.37s-11.59,16.45,0,36.01c7.36,12.43,28.78,36.62,43.43,52.62,7.13,7.79,19.78,6.31,24.92-2.91l31.46-55.46-10.68-6.84-28.83,42.27s-19.73-64.87-60.3-65.68Z"></path><path class="cls-2" d="m134.59,176.37s-11.59,16.45,0,36.01c7.36,12.43,28.78,36.62,43.43,52.62,7.13,7.79,19.78,6.31,24.92-2.91l31.46-55.46-10.68-6.84-28.83,42.27s-19.73-64.87-60.3-65.68Z"></path><path class="cls-4" d="m230.68,204.24s17.86-6.56,10.57-16.66c-7.29-10.1-17.53,12.2-17.53,12.2l6.96,4.46Z"></path><path class="cls-11" d="m90.43,161.99l-10-10.36c-2.1-2.17-3.19-5.11-3.05-8.13.24-5.27,1.37-13.67,5.73-19.97,6.84-9.89,15.95-13.63,18.21-5.08,2.26,8.55,2.73-1.6,8.24,2.94,5.51,4.54,4.38,7.21,0,9.62-4.38,2.41-13.45,5.89-14.26,13.1-.81,7.22,6.03,13.03-4.87,17.87Z"></path><path class="cls-11" d="m138.19,333.77l17.54,7.29c9.91,4.12,17.06,12.98,18.98,23.54l4.12,22.61,14.09-1.47-2.31-35.43c-.81-12.5-7.78-23.77-18.6-30.09l-11.66-6.81-22.17,20.35Z"></path><rect class="cls-13" x="123.36" y="351.42" width="14.83" height="79.1"></rect><rect class="cls-3" x="123.36" y="351.42" width="14.83" height="79.1"></rect><path class="cls-11" d="m94.91,308.96s-1.51,22.94,18.38,28.57c12.93,3.66,41,.45,59.07-2.25,10.22-1.53,20.42,2.88,26.27,11.41l20.34,29.67,11.27-5.64-14.85-41.39c-4.47-12.47-15.64-21.33-28.81-22.84l-24.16-2.77-67.51,5.24Z"></path><rect class="cls-13" x="99.51" y="331.27" width="63.05" height="30.06"></rect><polygon class="cls-13" points="123.36 417.84 99.51 438.97 162.56 438.97 138.19 417.84 123.36 417.84"></polygon><polygon class="cls-7" points="123.36 417.84 99.51 438.97 162.56 438.97 138.19 417.84 123.36 417.84"></polygon><polygon class="cls-12" points="189.31 173.18 205.13 136.82 215.46 150.01 235.5 140.47 244.26 155.26 265.87 152.16 253.03 193.49 232.05 198.9 222.41 183.09 202.31 188.62 189.31 173.18"></polygon><polygon class="cls-2" points="206.15 145.81 194.68 171.28 204.27 183.25 224.93 176.37 233.37 194.59 249.35 190.06 259.68 157.42 241.13 160.6 233.37 145.81 214.6 155.35 206.15 145.81"></polygon><polygon class="cls-7" points="215.46 150.01 202.31 188.62 222.41 183.09 235.5 140.47 215.46 150.01"></polygon><polygon class="cls-7" points="244.26 155.26 232.05 198.9 253.03 193.49 265.87 152.16 244.26 155.26"></polygon><path class="cls-4" d="m180.84,174.74s2-9.09,6.02-11.44c4.02-2.35,12.24-.5,8.72,4.56s-8.72,12.16-8.72,12.16l-6.02-5.28Z"></path></g><g id="pin"><ellipse class="cls-11" cx="387.61" cy="147.73" rx="28.47" ry="9.24"></ellipse><path class="cls-12" d="m429.43,69.34c0-24.66-21.35-44.34-46.57-41.56-19.09,2.1-34.52,17.4-36.77,36.48-1.17,9.88,1.12,19.17,5.8,26.85h0l35.72,58.53,35.54-58.25h0c3.98-6.4,6.28-13.95,6.28-22.04Zm-41.82,22.2c-11.3,0-20.45-9.16-20.45-20.45s9.16-20.45,20.45-20.45,20.45,9.16,20.45,20.45-9.16,20.45-20.45,20.45Z"></path></g><g id="panel"><g id="panel-2"><rect class="cls-11" x="343.97" y="268.72" width="110.8" height="67.73"></rect><path class="cls-1" d="m368.79,308.76s-1.74,9.47,5.86,8.18c7.6-1.28,3.98-5.31,2.9-10.49l-8.76,2.31Z"></path><path class="cls-1" d="m367.9,304.38l8.78-2.02s.36-7.04-.06-14.08c-.42-7.04-7.35-12.86-11.97-8.11-4.62,4.76-2.8,14.37,3.25,24.21Z"></path><path class="cls-1" d="m384.52,317.45s-5,7.03,1.66,8.87,5.24-2.8,6.33-7.42l-7.99-1.45Z"></path><path class="cls-1" d="m385.45,313.56l7.89,1.69s2.96-5.58,5.29-11.46-1.09-13.23-6.64-11.12-7.72,10.6-6.54,20.88Z"></path><rect class="cls-9" x="414.55" y="306.68" width="26.74" height="7.43"></rect></g><rect class="cls-8" x="414.55" y="293.45" width="26.74" height="7.43"></rect></g></svg>